inDegrees=no
num_controls=7
num_derivatives=13
num_iterations=141
num_multipliers=7
num_parameters=0
num_slacks=7
num_states=26
objective=0.500505
objective_accelerations=0.002877
objective_balance=0.002622
objective_effort=0.008243
objective_height=0.486763
objective_ligament=0.000000
solver_duration=2034.115912
status=Solve_Succeeded
success=true
DataType=double
version=3
OpenSimVersion=4.5
endheader
time	/jointset/ground_pelvis/pelvis_tilt/value	/jointset/ground_pelvis/pelvis_tx/value	/jointset/ground_pelvis/pelvis_ty/value	/jointset/hip_l/hip_flexion_l/value	/jointset/hip_l/hip_adduction_l/value	/jointset/hip_l/hip_rotation_l/value	/jointset/back/lumbar_extension/value	/jointset/patellofemoral_l/patellar_flexion_l/value	/jointset/knee_l/knee_flexion_l/value	/jointset/knee_l/knee_adduction_l/value	/jointset/knee_l/knee_rotation_l/value	/jointset/ankle_l/ankle_angle_l/value	/jointset/subtalar_l/subtalar_angle_l/value	/jointset/ground_pelvis/pelvis_tilt/speed	/jointset/ground_pelvis/pelvis_tx/speed	/jointset/ground_pelvis/pelvis_ty/speed	/jointset/hip_l/hip_flexion_l/speed	/jointset/hip_l/hip_adduction_l/speed	/jointset/hip_l/hip_rotation_l/speed	/jointset/back/lumbar_extension/speed	/jointset/patellofemoral_l/patellar_flexion_l/speed	/jointset/knee_l/knee_flexion_l/speed	/jointset/knee_l/knee_adduction_l/speed	/jointset/knee_l/knee_rotation_l/speed	/jointset/ankle_l/ankle_angle_l/speed	/jointset/subtalar_l/subtalar_angle_l/speed	/forceset/tau_hip_flexion_l	/forceset/tau_hip_adduction_l	/forceset/tau_hip_rotation_l	/forceset/tau_knee_flexion_l	/forceset/tau_ankle_angle_l	/forceset/tau_subtalar_angle_l	/forceset/tau_lumbar_extension	lambda_cid13_p0	lambda_cid13_p1	lambda_cid13_p2	lambda_cid13_p3	lambda_cid13_p4	lambda_cid13_p5	lambda_cid14_p0	/jointset/ground_pelvis/pelvis_tilt/accel	/jointset/ground_pelvis/pelvis_tx/accel	/jointset/ground_pelvis/pelvis_ty/accel	/jointset/hip_l/hip_flexion_l/accel	/jointset/hip_l/hip_adduction_l/accel	/jointset/hip_l/hip_rotation_l/accel	/jointset/back/lumbar_extension/accel	/jointset/patellofemoral_l/patellar_flexion_l/accel	/jointset/knee_l/knee_flexion_l/accel	/jointset/knee_l/knee_adduction_l/accel	/jointset/knee_l/knee_rotation_l/accel	/jointset/ankle_l/ankle_angle_l/accel	/jointset/subtalar_l/subtalar_angle_l/accel	gamma_cid13_p0	gamma_cid13_p1	gamma_cid13_p2	gamma_cid13_p3	gamma_cid13_p4	gamma_cid13_p5	gamma_cid14_p0
0	-0.03682180596845397	0.05667698682241969	0.9203417085917609	0.3085816938045678	-0.2956387608125285	-0.3015987033913876	-0.3879492264334186	0.2499269421184202	0.2499269421184919	-0.1745304634739046	-0.1745237433787049	-0.0008036623358878681	0.0004392663448971958	0	0	0	0	0	0	0	0	0	0	0	0	0	-0.0361945968312348	0.07183423223765359	-0.01319196797828612	-0.1824021017474395	0.1874238222664107	-0.06996752695687095	0.1184242661660563	10.88564042531171	24.88790867319005	-0.3180603169077895	-14.15294389296392	-702.551660158784	-12.16217486070992	-23.1968432652288	0.1707892299628276	0.1217400331931611	0.03700249834766781	-0.3717924184856297	0.04320602565827534	-0.0004608355506493245	-0.7327502133208577	-0.05859081989250127	-0.05859081989250511	0.06939344817871332	0.04325332372219004	0.1730665505194488	0.1045644821870221	-2.079924465174855e-10	2.310928313028639e-10	-2.21652141674203e-11	3.150466988487348e-10	-2.528045446540849e-09	3.19429859811554e-10	3.544325376321977e-11
0.01	-0.0368145085572935	0.05668376886289166	0.9203434941428381	0.3085634528913672	-0.2956369986660261	-0.3015988251243957	-0.3879867439019857	0.2499239662581665	0.2499239662582652	-0.1745278087597006	-0.1745218176340336	-0.0007943874137071107	0.0004442989146249978	0.001353044616022506	0.001426628444604099	0.0003532411936898485	-0.003642967647038961	0.000312928759341172	-3.920369501850068e-05	-0.007613435126547908	-0.0006140113493076175	-0.0006140113493075291	0.0004455528897729301	0.0003611579120430471	0.001913403558443813	0.0009860540810559617	-0.02848522077012454	0.04341229066050382	-0.01456695882532113	-0.1955906988811492	0.1985496971520893	-0.05015507837744411	0.1133518497699493	15.25916468673664	15.87125583754153	0.715469151274348	-18.5818089207046	-702.3310468698811	-32.13645290099088	-23.19672393864101	0.1015964659926394	0.1636573707639258	0.03390407113181885	-0.3597667015797029	0.01941128707313606	-0.007878702133421962	-0.7921313773442631	-0.06563219576540875	-0.0656321957650251	0.0193277223508689	0.0289483718093612	0.2092401288886727	0.09255686473320528	-5.624577548636657e-11	9.031855366249517e-11	-3.269519869257599e-11	9.835533717289662e-11	-7.146802906321706e-10	1.576334309623738e-10	1.177583927042352e-11
0.02	-0.03679687382218842	0.05670692381195019	0.9203486959341012	0.3085089387489817	-0.2956332922347347	-0.3015997846074938	-0.3881036939648198	0.2499142851037869	0.249914285103792	-0.1745232602141261	-0.1745170000408484	-0.0007642258818642235	0.000458578223896957	0.002067464774599639	0.003274581717310812	0.0006832480371634413	-0.007254645844700422	0.0003888569587268607	-0.0001675500162705032	-0.01588651885427355	-0.001341058831249383	-0.001341058831249364	0.0003787662985160969	0.0005783696986560586	0.004177321932185249	0.001849347908857056	-0.02077584470915041	0.01499034908338644	-0.01594194967264493	-0.2087792960149444	0.2096755720377106	-0.03034262979800041	0.1082794333737583	19.63311899819161	6.85483528539329	1.7486102564937	-23.02274023547145	-702.112270085861	-52.11074583111724	-23.19641733341435	0.04306433847175643	0.2060049988155192	0.03235562830445844	-0.3655345286104464	-0.004194086332814171	-0.0182893607972658	-0.8646799335574715	-0.08119804641968179	-0.08119804641971719	-0.03307444802733656	0.01446409863644751	0.243169513581024	0.08001243153676418	9.550089554475239e-11	-5.045572397787358e-11	-4.322518321773169e-11	-1.183360245029415e-10	1.098684865276508e-09	-4.162997886806486e-12	-1.189157522237272e-11
0.03	-0.03677352986749752	0.05674957512927315	0.9203571581223959	0.3084182009665815	-0.2956293855810787	-0.3016023400772953	-0.3883041618775064	0.2498969606696557	0.249896960669574	-0.1745206158609564	-0.174510414834909	-0.0007106154906507649	0.0004811965897842952	0.002671373899459385	0.005216991383764079	0.001013052420108347	-0.01091570966173517	0.0004149286267420057	-0.0003430025046782083	-0.02406654849343831	-0.002124789936280285	-0.002124789936280178	0.0001952745621489949	0.0007483230827496476	0.006508331472591101	0.002684977916774934	-0.02694662574777647	0.03370593312944961	-0.01484554275565715	-0.1986456449612249	0.2003494380103857	-0.04250815767694023	0.1125416348001219	16.13682050308453	12.50978629142811	1.122009995184834	-19.86313757284039	-702.4655900132874	-39.43914878674794	-23.19597685089879	0.07956133926267493	0.1825553765586202	0.03387249018674674	-0.369812157364598	0.009376005869751115	-0.01709196848914505	-0.7735872038930331	-0.07710493049546263	-0.07710493049505883	-0.004211009091936953	0.01970869273953964	0.2226029561338265	0.08693619545101201	1.004324501759478e-10	2.69509061100771e-10	-1.97251844998895e-10	-4.150682876685959e-11	4.876859151573342e-10	4.880164003799243e-10	2.881056855949468e-11
